<?xml version="1.0" encoding="utf-8"?>
<!-- Generator: Adobe Illustrator 22.0.0, SVG Export Plug-In . SVG Version: 6.00 Build 0)  -->
<svg version="1.1" id="Layer_1" xmlns="http://www.w3.org/2000/svg" xmlns:xlink="http://www.w3.org/1999/xlink" x="0px" y="0px"
	 width="161.4px" height="47px" viewBox="0 0 161.4 47" style="enable-background:new 0 0 161.4 47;" xml:space="preserve">
<style type="text/css">
	.st0{fill:#FFFFFF;}
	.st1{fill:#C8102E;}
</style>
<title>Group 2</title>
<g id="Page-1">
	<g id="Group-2" transform="translate(0.055885, 0.057975)">
		<path id="Fill-4" d="M9.2,46.9c-0.4,0-0.7,0-1.1,0c-0.7,0-1.5-0.1-2.3-0.2c-0.7-0.1-1.4-0.4-2-0.7c-0.6-0.3-1.2-0.7-1.7-1.2
			c-0.5-0.5-0.9-1.1-1.2-1.7c-0.3-0.6-0.5-1.3-0.7-2C0.1,40.3,0,39.5,0,38.8c0-0.3,0-1.1,0-1.1V9.2c0,0,0-0.8,0-1.1
			c0-0.6,0.1-1.5,0.2-2.3c0.1-0.7,0.3-1.4,0.7-2c0.3-0.6,0.7-1.2,1.2-1.7c0.5-0.5,1.1-0.9,1.7-1.2c0.6-0.3,1.3-0.5,2-0.7
			C6.6,0.1,7.4,0,8.1,0l1.1,0h142.9l1.1,0c0.6,0,1.4,0.1,2.2,0.2c0.7,0.1,1.4,0.3,2,0.7c0.6,0.3,1.2,0.7,1.7,1.2
			c0.5,0.5,0.9,1.1,1.2,1.7c0.3,0.6,0.5,1.3,0.6,2c0.1,0.8,0.2,1.5,0.2,2.3c0,0.3,0,0.7,0,1.1c0,0.5,0,0.9,0,1.3v25.9
			c0,0.4,0,0.9,0,1.3c0,0.4,0,0.8,0,1.1c0,0.7-0.1,1.5-0.2,2.2c-0.1,0.7-0.3,1.4-0.7,2c-0.3,0.6-0.7,1.2-1.2,1.7
			c-0.5,0.5-1.1,0.9-1.7,1.2c-0.6,0.3-1.3,0.5-2,0.7c-0.8,0.1-1.6,0.2-2.3,0.2c-0.4,0-0.7,0-1.1,0l-1.3,0L9.2,46.9z"/>
		<path id="Fill-6" class="st0" d="M54.6,30.1h4.3L57.3,26c-0.2-0.6-0.4-1.2-0.6-1.9c-0.2,0.6-0.4,1.2-0.6,1.9L54.6,30.1z M59.6,32
			h-5.7l-1.4,3.8h-2.5l5.6-14.3h2.4l5.7,14.3H61L59.6,32z"/>
		<path id="Fill-8" class="st0" d="M71.1,33.3c0.5-0.7,0.7-1.6,0.7-2.9c0-1.2-0.2-2.1-0.6-2.6c-0.4-0.5-1-0.8-1.6-0.8
			c-0.5,0-0.9,0.1-1.3,0.3c-0.4,0.2-0.8,0.5-1.1,0.9v5.7c0.2,0.1,0.5,0.2,0.9,0.3c0.3,0.1,0.6,0.1,1,0.1
			C69.9,34.3,70.6,33.9,71.1,33.3L71.1,33.3z M64.7,27.8c0-0.8,0-1.7-0.1-2.6h2.3c0.1,0.4,0.1,0.9,0.2,1.4c0.9-1,2-1.6,3.3-1.6
			c0.7,0,1.4,0.2,2,0.5c0.6,0.4,1.1,0.9,1.5,1.7c0.4,0.8,0.6,1.8,0.6,3c0,1.2-0.2,2.3-0.6,3.2c-0.4,0.9-1,1.6-1.8,2
			c-0.8,0.5-1.6,0.7-2.7,0.7c-0.7,0-1.4-0.1-2.1-0.4v4.4l-2.4,0.2V27.8z"/>
		<path id="Fill-10" class="st0" d="M82.2,33.3c0.5-0.7,0.7-1.6,0.7-2.9c0-1.2-0.2-2.1-0.6-2.6c-0.4-0.5-1-0.8-1.6-0.8
			c-0.5,0-0.9,0.1-1.3,0.3c-0.4,0.2-0.8,0.5-1.1,0.9v5.7c0.2,0.1,0.5,0.2,0.9,0.3c0.3,0.1,0.6,0.1,1,0.1
			C81,34.3,81.7,33.9,82.2,33.3L82.2,33.3z M75.8,27.8c0-0.8,0-1.7-0.1-2.6H78c0.1,0.4,0.1,0.9,0.2,1.4c0.9-1,2-1.6,3.3-1.6
			c0.7,0,1.4,0.2,2,0.5c0.6,0.4,1.1,0.9,1.5,1.7c0.4,0.8,0.6,1.8,0.6,3c0,1.2-0.2,2.3-0.6,3.2c-0.4,0.9-1,1.6-1.8,2
			c-0.8,0.5-1.6,0.7-2.7,0.7c-0.7,0-1.4-0.1-2.1-0.4v4.4l-2.4,0.2V27.8z"/>
		<path id="Fill-12" class="st0" d="M90,35.2c-1.1-0.6-1.9-1.4-2.4-2.5c-0.6-1.1-0.9-2.4-0.9-3.9c0-1.6,0.3-3,1-4.1s1.5-2,2.7-2.5
			c1.1-0.6,2.4-0.8,3.8-0.8c0.8,0,1.6,0.1,2.4,0.3c0.7,0.2,1.4,0.4,2.1,0.7l-0.6,1.9c-1.3-0.6-2.5-0.9-3.7-0.9c-1,0-1.9,0.2-2.6,0.6
			c-0.7,0.4-1.3,1-1.7,1.9c-0.4,0.8-0.6,1.8-0.6,3c0,1,0.2,1.9,0.5,2.7c0.3,0.8,0.8,1.4,1.5,1.9c0.7,0.5,1.6,0.7,2.6,0.7
			c0.5,0,0.9,0,1.4-0.1c0.5-0.1,0.9-0.2,1.3-0.3v-2.9h-3.3v-1.9H99v6c-0.8,0.4-1.7,0.7-2.6,0.9c-0.9,0.2-1.8,0.3-2.7,0.3
			C92.3,36.1,91,35.8,90,35.2"/>
		<path id="Fill-14" class="st0" d="M106.2,33.9c0.5-0.2,0.9-0.5,1.2-0.9v-2c-0.7-0.1-1.2-0.1-1.6-0.1c-1,0-1.7,0.2-2.1,0.5
			c-0.4,0.3-0.6,0.8-0.6,1.3c0,0.5,0.1,0.9,0.4,1.2c0.3,0.3,0.7,0.4,1.1,0.4C105.2,34.2,105.7,34.1,106.2,33.9L106.2,33.9z
			 M107.6,35.9c-0.1-0.4-0.1-0.9-0.2-1.4c-0.4,0.4-0.9,0.8-1.5,1.1c-0.6,0.3-1.3,0.5-2,0.5c-0.6,0-1.2-0.1-1.7-0.4
			c-0.5-0.2-0.9-0.6-1.2-1.1c-0.3-0.5-0.4-1.1-0.4-1.8c0-1,0.4-1.9,1.1-2.5c0.7-0.6,2-0.9,3.7-0.9c0.7,0,1.3,0,1.9,0.1v-0.2
			c0-0.9-0.2-1.6-0.6-2c-0.4-0.4-1-0.6-1.7-0.6c-0.5,0-1.1,0.1-1.7,0.2c-0.6,0.2-1.1,0.3-1.6,0.5l-0.4-1.8c0.4-0.2,1-0.4,1.7-0.5
			c0.7-0.2,1.5-0.2,2.3-0.2c0.9,0,1.7,0.1,2.4,0.4c0.6,0.3,1.2,0.8,1.5,1.4c0.4,0.7,0.5,1.6,0.5,2.8v4.2c0,0.4,0,1.1,0.1,2H107.6z"
			/>
		<path id="Fill-16" class="st0" d="M111.7,33.3V20.7l2.4-0.2v12.4c0,0.5,0.1,0.8,0.2,1c0.2,0.2,0.4,0.3,0.7,0.3
			c0.2,0,0.4,0,0.6-0.1l0.3,1.8c-0.2,0.1-0.5,0.2-0.8,0.2c-0.3,0.1-0.6,0.1-0.9,0.1C112.6,36.1,111.7,35.1,111.7,33.3"/>
		<path id="Fill-18" class="st0" d="M117.8,33.3V20.7l2.4-0.2v12.4c0,0.5,0.1,0.8,0.2,1c0.2,0.2,0.4,0.3,0.7,0.3
			c0.2,0,0.4,0,0.6-0.1l0.3,1.8c-0.2,0.1-0.5,0.2-0.8,0.2c-0.3,0.1-0.6,0.1-0.9,0.1C118.7,36.1,117.8,35.1,117.8,33.3"/>
		<path id="Fill-20" class="st0" d="M129.8,29.3c0-0.9-0.3-1.5-0.6-1.9c-0.4-0.4-0.9-0.6-1.5-0.6c-0.6,0-1.1,0.2-1.5,0.6
			c-0.4,0.4-0.7,1.1-0.8,1.9H129.8z M132.1,30.8h-7c0.1,2.2,1.2,3.4,3.2,3.4c0.5,0,1-0.1,1.5-0.2c0.5-0.1,1-0.3,1.5-0.5l0.5,1.7
			c-1.2,0.6-2.5,0.9-4,0.9c-1.1,0-2.1-0.2-2.9-0.6c-0.8-0.4-1.4-1-1.8-1.8c-0.4-0.8-0.6-1.8-0.6-2.9c0-1.2,0.2-2.2,0.6-3
			c0.4-0.9,1-1.5,1.7-1.9c0.7-0.4,1.6-0.7,2.6-0.7c1,0,1.9,0.2,2.5,0.7s1.2,1.1,1.5,1.9c0.3,0.8,0.5,1.7,0.5,2.6V30.8z"/>
		<path id="Fill-22" class="st0" d="M134,27.9c0-0.6,0-1.5-0.1-2.7h2.3c0,0.3,0.1,0.7,0.1,1.1c0,0.4,0.1,0.7,0.1,1
			c0.3-0.5,0.6-0.9,0.8-1.2c0.3-0.3,0.6-0.6,1-0.8c0.4-0.2,0.8-0.3,1.3-0.3c0.4,0,0.7,0,1,0.1l-0.3,2.1c-0.2-0.1-0.5-0.1-0.8-0.1
			c-0.6,0-1.1,0.1-1.5,0.4c-0.4,0.3-0.9,0.8-1.4,1.4v6.9H134V27.9z"/>
		<path id="Fill-24" class="st0" d="M141.8,40.2c-0.4-0.1-0.6-0.1-0.9-0.2l0.4-1.8c0.2,0,0.4,0.1,0.6,0.1c0.3,0,0.5,0.1,0.7,0.1
			c1.1,0,1.9-0.7,2.4-2.1l0.2-0.4l-3.9-10.8h2.6l2,6c0.3,1,0.5,1.8,0.6,2.4c0.2-0.8,0.4-1.5,0.7-2.3l2-6.1h2.5L147.7,36
			c-0.4,1-0.8,1.8-1.2,2.5c-0.4,0.6-0.9,1.1-1.5,1.4c-0.6,0.3-1.3,0.5-2.1,0.5C142.5,40.3,142.1,40.3,141.8,40.2"/>
		<polygon id="Fill-26" class="st0" points="49.9,7.9 54.2,7.9 54.1,8.9 51.2,8.9 51.2,11 54,11 54,12 51.2,12 51.2,14.2 54.3,14.2 
			54.2,15.3 49.9,15.3 		"/>
		<polygon id="Fill-28" class="st0" points="57.3,11.5 55,7.9 56.4,7.9 58,10.5 59.6,7.9 61,7.9 58.7,11.5 61.2,15.3 59.7,15.3 
			58,12.4 56.2,15.3 54.8,15.3 		"/>
		<path id="Fill-30" class="st0" d="M65.3,11.2c0.3-0.2,0.4-0.6,0.4-1c0-0.5-0.1-0.8-0.4-1c-0.3-0.2-0.7-0.3-1.2-0.3h-0.7v2.6
			c0.3,0.1,0.6,0.1,0.7,0.1C64.7,11.6,65.1,11.4,65.3,11.2L65.3,11.2z M62.1,7.9h2c0.9,0,1.7,0.2,2.1,0.6c0.5,0.4,0.7,0.9,0.7,1.7
			c0,0.5-0.1,0.9-0.3,1.3c-0.2,0.4-0.5,0.6-0.9,0.8c-0.4,0.2-0.9,0.3-1.4,0.3c-0.3,0-0.6,0-1-0.1v2.8h-1.3V7.9z"/>
		<polygon id="Fill-32" class="st0" points="68.3,7.9 69.6,7.9 69.6,14.2 72.6,14.2 72.5,15.3 68.3,15.3 		"/>
		<path id="Fill-34" class="st0" d="M77.9,14c0.4-0.2,0.6-0.6,0.8-1c0.2-0.4,0.3-0.9,0.3-1.4c0-0.5-0.1-1-0.2-1.4
			c-0.2-0.4-0.4-0.7-0.8-1c-0.3-0.2-0.8-0.4-1.3-0.4c-0.5,0-1,0.1-1.3,0.4c-0.4,0.3-0.6,0.6-0.8,1c-0.2,0.4-0.3,0.9-0.3,1.4
			c0,0.5,0.1,1,0.3,1.4c0.2,0.4,0.4,0.8,0.8,1c0.4,0.2,0.8,0.4,1.3,0.4C77.1,14.4,77.5,14.2,77.9,14 M74.6,14.9
			c-0.5-0.3-1-0.7-1.2-1.3c-0.3-0.6-0.4-1.2-0.4-2c0-0.8,0.2-1.5,0.5-2c0.3-0.6,0.7-1,1.3-1.4c0.6-0.3,1.2-0.5,2-0.5
			c0.7,0,1.4,0.2,1.9,0.5c0.5,0.3,0.9,0.7,1.2,1.3c0.3,0.6,0.4,1.2,0.4,1.9c0,0.8-0.2,1.5-0.5,2.1c-0.3,0.6-0.7,1-1.3,1.4
			c-0.6,0.3-1.2,0.5-2,0.5C75.7,15.4,75.1,15.2,74.6,14.9"/>
		<path id="Fill-36" class="st0" d="M83.7,11.4c0.3,0,0.6-0.1,0.8-0.2c0.2-0.1,0.4-0.3,0.6-0.5c0.1-0.2,0.2-0.5,0.2-0.8
			c0-0.4-0.1-0.6-0.4-0.8c-0.2-0.2-0.6-0.3-1-0.3H83v2.5H83.7z M81.7,7.9H84c0.8,0,1.5,0.2,1.9,0.5c0.4,0.3,0.7,0.8,0.7,1.4
			c0,0.4-0.1,0.7-0.2,1c-0.2,0.3-0.4,0.5-0.6,0.7c-0.2,0.2-0.5,0.3-0.7,0.4l2.3,3.3h-1.5l-1.9-2.9H83v2.9h-1.3V7.9z"/>
		<polygon id="Fill-38" class="st0" points="88.3,7.9 92.7,7.9 92.6,8.9 89.6,8.9 89.6,11 92.4,11 92.4,12 89.6,12 89.6,14.2 
			92.7,14.2 92.6,15.3 88.3,15.3 		"/>
		<g id="Fill-40-Clipped" transform="translate(96.944115, 6.942025)">
			<polygon id="Fill-40" class="st0" points="0.5,8.3 1.7,8.3 1.7,0.9 0.5,0.9 			"/>
		</g>
		<g id="Fill-42-Clipped" transform="translate(98.944115, 6.942025)">
			<polygon id="Fill-42" class="st0" points="3.1,2 0.8,2 0.9,0.9 6.7,0.9 6.6,2 4.4,2 4.4,8.3 3.1,8.3 			"/>
		</g>
		<g id="Fill-43-Clipped" transform="translate(108.944115, 6.942025)">
			<path id="Fill-43" class="st0" d="M5.5,7.1c0.4-0.2,0.6-0.6,0.8-1c0.2-0.4,0.3-0.9,0.3-1.4c0-0.5-0.1-1-0.2-1.4
				C6.2,2.8,6,2.5,5.6,2.2C5.3,2,4.8,1.9,4.3,1.9C3.8,1.9,3.3,2,3,2.2c-0.4,0.3-0.6,0.6-0.8,1C2,3.7,1.9,4.1,1.9,4.6
				c0,0.5,0.1,1,0.3,1.4c0.2,0.4,0.4,0.8,0.8,1c0.4,0.2,0.8,0.4,1.3,0.4C4.7,7.4,5.2,7.3,5.5,7.1 M2.2,8C1.7,7.7,1.3,7.2,1,6.7
				c-0.3-0.6-0.4-1.2-0.4-2c0-0.8,0.2-1.5,0.5-2c0.3-0.6,0.7-1,1.3-1.4c0.6-0.3,1.2-0.5,2-0.5c0.7,0,1.4,0.2,1.9,0.5
				C6.8,1.6,7.2,2,7.5,2.6c0.3,0.6,0.4,1.2,0.4,1.9c0,0.8-0.2,1.5-0.5,2.1C7.2,7.2,6.7,7.6,6.2,8c-0.6,0.3-1.2,0.5-2,0.5
				C3.4,8.4,2.8,8.3,2.2,8"/>
		</g>
		<g id="Fill-44-Clipped" transform="translate(117.944115, 6.942025)">
			<path id="Fill-44" class="st0" d="M0.4,0.9h1.5l3.7,5.7c0-0.5,0-1,0-1.5V0.9h1.2v7.4H5.2L1.5,2.5c0,0.7,0.1,1.2,0.1,1.8v4.1H0.4
				V0.9z"/>
		</g>
		<path id="Fill-45" class="st1" d="M31.9,7.9H18.4c-6.4,0-8.7,2.3-8.7,8.7v13.6c0,6.4,2.3,8.7,8.7,8.7h13.6c6.4,0,8.7-2.3,8.7-8.7
			V16.7C40.7,10.3,38.3,7.9,31.9,7.9"/>
		<path id="Fill-46" class="st0" d="M23.2,25.9h1.2l-0.6-1.5L23.2,25.9z M22.9,26.7l-0.4,0.8h-0.8l1.8-4.1h0.7l1.8,4.1h-0.9
			l-0.4-0.8H22.9z M36.4,27.5h0.8v-4.1h-0.8V27.5z M33.2,25.8h1.5V25h-1.5v-0.8h2.2v-0.7h-3v4.1h3.1v-0.7h-2.3V25.8z M29.9,26.2
			L29,23.4h-0.7l-0.9,2.8l-0.9-2.8h-0.9l1.4,4.1h0.7l0.9-2.7l0.9,2.7h0.7l1.4-4.1h-0.9L29.9,26.2z M20.4,25.8c0,0.7-0.3,1-0.9,1
			c-0.6,0-0.9-0.4-0.9-1v-2.3h-0.8v2.3c0,1.1,0.6,1.8,1.7,1.8c1.1,0,1.8-0.7,1.8-1.8v-2.3h-0.8V25.8z M15.8,23.4h0.8v4.1h-0.8v-1.6
			h-1.9v1.6h-0.8v-4.1h0.8v1.6h1.9V23.4z"/>
		<g id="Fill-47-Clipped" transform="translate(19.944115, 12.942025)">
			<path id="Fill-47" class="st0" d="M5.2,5.3C2.4,5.3,0.1,3,0.1,0.2h0.7c0,2.4,2,4.4,4.4,4.4s4.4-2,4.4-4.4h0.7
				C10.4,3,8.1,5.3,5.2,5.3"/>
		</g>
	</g>
</g>
</svg>
